{
    "asset" : {
        "generator" : "Khronos glTF Blender I/O v3.2.43",
        "version" : "2.0"
    },
    "scene" : 0,
    "scenes" : [
        {
            "name" : "Scene",
            "nodes" : [
                0
            ]
        }
    ],
    "nodes" : [
        {
            "mesh" : 0,
            "name" : "Object_2",
            "rotation" : [
                -0.6987903118133545,
                0,
                0,
                0.7153266072273254
            ],
            "scale" : [
                0.24973908066749573,
                0.2497391253709793,
                0.2497391253709793
            ]
        }
    ],
    "animations" : [
        {
            "channels" : [
                {
                    "sampler" : 0,
                    "target" : {
                        "node" : 0,
                        "path" : "translation"
                    }
                },
                {
                    "sampler" : 1,
                    "target" : {
                        "node" : 0,
                        "path" : "rotation"
                    }
                },
                {
                    "sampler" : 2,
                    "target" : {
                        "node" : 0,
                        "path" : "scale"
                    }
                }
            ],
            "name" : "jump",
            "samplers" : [
                {
                    "input" : 4,
                    "interpolation" : "LINEAR",
                    "output" : 5
                },
                {
                    "input" : 4,
                    "interpolation" : "LINEAR",
                    "output" : 6
                },
                {
                    "input" : 4,
                    "interpolation" : "LINEAR",
                    "output" : 7
                }
            ]
        }
    ],
    "materials" : [
        {
            "doubleSided" : true,
            "name" : "jerry",
            "pbrMetallicRoughness" : {
                "baseColorTexture" : {
                    "index" : 0
                },
                "metallicFactor" : 0
            }
        }
    ],
    "meshes" : [
        {
            "name" : "Object_0",
            "primitives" : [
                {
                    "attributes" : {
                        "POSITION" : 0,
                        "NORMAL" : 1,
                        "TEXCOORD_0" : 2
                    },
                    "indices" : 3,
                    "material" : 0
                }
            ]
        }
    ],
    "textures" : [
        {
            "sampler" : 0,
            "source" : 0
        }
    ],
    "images" : [
        {
            "bufferView" : 4,
            "mimeType" : "image/png",
            "name" : "jerry_baseColor"
        }
    ],
    "accessors" : [
        {
            "bufferView" : 0,
            "componentType" : 5126,
            "count" : 2990,
            "max" : [
                4.781664848327637,
                4.802383899688721,
                10.801616668701172
            ],
            "min" : [
                -4.7732439041137695,
                -2.386461019515991,
                -0.18384799361228943
            ],
            "type" : "VEC3"
        },
        {
            "bufferView" : 1,
            "componentType" : 5126,
            "count" : 2990,
            "type" : "VEC3"
        },
        {
            "bufferView" : 2,
            "componentType" : 5126,
            "count" : 2990,
            "type" : "VEC2"
        },
        {
            "bufferView" : 3,
            "componentType" : 5123,
            "count" : 11253,
            "type" : "SCALAR"
        },
        {
            "bufferView" : 5,
            "componentType" : 5126,
            "count" : 101,
            "max" : [
                4.166666666666667
            ],
            "min" : [
                0
            ],
            "type" : "SCALAR"
        },
        {
            "bufferView" : 6,
            "componentType" : 5126,
            "count" : 101,
            "type" : "VEC3"
        },
        {
            "bufferView" : 7,
            "componentType" : 5126,
            "count" : 101,
            "type" : "VEC4"
        },
        {
            "bufferView" : 8,
            "componentType" : 5126,
            "count" : 101,
            "type" : "VEC3"
        }
    ],
    "bufferViews" : [
        {
            "buffer" : 0,
            "byteLength" : 35880,
            "byteOffset" : 0
        },
        {
            "buffer" : 0,
            "byteLength" : 35880,
            "byteOffset" : 35880
        },
        {
            "buffer" : 0,
            "byteLength" : 23920,
            "byteOffset" : 71760
        },
        {
            "buffer" : 0,
            "byteLength" : 22506,
            "byteOffset" : 95680
        },
        {
            "buffer" : 0,
            "byteLength" : 1133,
            "byteOffset" : 118188
        },
        {
            "buffer" : 0,
            "byteLength" : 404,
            "byteOffset" : 119324
        },
        {
            "buffer" : 0,
            "byteLength" : 1212,
            "byteOffset" : 119728
        },
        {
            "buffer" : 0,
            "byteLength" : 1616,
            "byteOffset" : 120940
        },
        {
            "buffer" : 0,
            "byteLength" : 1212,
            "byteOffset" : 122556
        }
    ],
    "samplers" : [
        {
            "magFilter" : 9729,
            "minFilter" : 9987
        }
    ],
    "buffers" : [
        {
            "byteLength" : 123768,
            "uri" : "data:application/octet-stream;base64,"
        }
    ]
}
