{
    "asset" : {
        "generator" : "Khronos glTF Blender I/O v3.2.43",
        "version" : "2.0"
    },
    "scene" : 0,
    "scenes" : [
        {
            "name" : "Scene",
            "nodes" : [
                0
            ]
        }
    ],
    "nodes" : [
        {
            "mesh" : 0,
            "name" : "Mesh_galho fino_0",
            "scale" : [
                0.009999999776482582,
                0.010000001639127731,
                0.010000001639127731
            ],
            "translation" : [
                -2.795475482940674,
                -0.6756452322006226,
                -12.215792655944824
            ]
        }
    ],
    "animations" : [
        {
            "channels" : [
                {
                    "sampler" : 0,
                    "target" : {
                        "node" : 0,
                        "path" : "translation"
                    }
                },
                {
                    "sampler" : 1,
                    "target" : {
                        "node" : 0,
                        "path" : "rotation"
                    }
                },
                {
                    "sampler" : 2,
                    "target" : {
                        "node" : 0,
                        "path" : "scale"
                    }
                }
            ],
            "name" : "Action",
            "samplers" : [
                {
                    "input" : 5,
                    "interpolation" : "LINEAR",
                    "output" : 6
                },
                {
                    "input" : 5,
                    "interpolation" : "LINEAR",
                    "output" : 7
                },
                {
                    "input" : 5,
                    "interpolation" : "LINEAR",
                    "output" : 8
                }
            ]
        }
    ],
    "materials" : [
        {
            "doubleSided" : true,
            "name" : "galho_fino",
            "pbrMetallicRoughness" : {}
        }
    ],
    "meshes" : [
        {
            "name" : "Mesh_galho fino_0",
            "primitives" : [
                {
                    "attributes" : {
                        "POSITION" : 0,
                        "NORMAL" : 1,
                        "TEXCOORD_0" : 2,
                        "TEXCOORD_1" : 3
                    },
                    "indices" : 4,
                    "material" : 0
                }
            ]
        }
    ],
    "accessors" : [
        {
            "bufferView" : 0,
            "componentType" : 5126,
            "count" : 49823,
            "max" : [
                137.2277069091797,
                516.3931274414062,
                142.57432556152344
            ],
            "min" : [
                -133.52529907226562,
                -8.633139610290527,
                -144.4857177734375
            ],
            "type" : "VEC3"
        },
        {
            "bufferView" : 1,
            "componentType" : 5126,
            "count" : 49823,
            "type" : "VEC3"
        },
        {
            "bufferView" : 2,
            "componentType" : 5126,
            "count" : 49823,
            "type" : "VEC2"
        },
        {
            "bufferView" : 3,
            "componentType" : 5126,
            "count" : 49823,
            "type" : "VEC2"
        },
        {
            "bufferView" : 4,
            "componentType" : 5123,
            "count" : 145188,
            "type" : "SCALAR"
        },
        {
            "bufferView" : 5,
            "componentType" : 5126,
            "count" : 51,
            "max" : [
                2.0833333333333335
            ],
            "min" : [
                0
            ],
            "type" : "SCALAR"
        },
        {
            "bufferView" : 6,
            "componentType" : 5126,
            "count" : 51,
            "type" : "VEC3"
        },
        {
            "bufferView" : 7,
            "componentType" : 5126,
            "count" : 51,
            "type" : "VEC4"
        },
        {
            "bufferView" : 8,
            "componentType" : 5126,
            "count" : 51,
            "type" : "VEC3"
        }
    ],
    "bufferViews" : [
        {
            "buffer" : 0,
            "byteLength" : 597876,
            "byteOffset" : 0
        },
        {
            "buffer" : 0,
            "byteLength" : 597876,
            "byteOffset" : 597876
        },
        {
            "buffer" : 0,
            "byteLength" : 398584,
            "byteOffset" : 1195752
        },
        {
            "buffer" : 0,
            "byteLength" : 398584,
            "byteOffset" : 1594336
        },
        {
            "buffer" : 0,
            "byteLength" : 290376,
            "byteOffset" : 1992920
        },
        {
            "buffer" : 0,
            "byteLength" : 204,
            "byteOffset" : 2283296
        },
        {
            "buffer" : 0,
            "byteLength" : 612,
            "byteOffset" : 2283500
        },
        {
            "buffer" : 0,
            "byteLength" : 816,
            "byteOffset" : 2284112
        },
        {
            "buffer" : 0,
            "byteLength" : 612,
            "byteOffset" : 2284928
        }
    ],
    "buffers" : [
        {
            "byteLength" : 2285540,
            "uri" : "data:application/octet-stream;base64,"
        }
    ]
}
